<mxfile host="app.diagrams.net" modified="2023-07-11T22:38:31.410Z" agent="Mozilla/5.0 (Windows NT 10.0; Win64; x64) AppleWebKit/537.36 (KHTML, like Gecko) Chrome/114.0.0.0 Safari/537.36" etag="sSWInrDvwma-ToBa7Xx7" version="21.6.1" type="github">
  <diagram name="Page-1" id="p1_BO4_6C53-m-4waUHZ">
    <mxGraphModel dx="1434" dy="796" grid="1" gridSize="10" guides="1" tooltips="1" connect="1" arrows="1" fold="1" page="1" pageScale="1" pageWidth="850" pageHeight="1100" math="0" shadow="0">
      <root>
        <mxCell id="0" />
        <mxCell id="1" parent="0" />
        <mxCell id="VyKBuyyWBRmMPZ-tObt2-19" value="TradingEngine" style="swimlane;whiteSpace=wrap;html=1;" parent="1" vertex="1">
          <mxGeometry x="575" y="310" width="525" height="240" as="geometry" />
        </mxCell>
        <mxCell id="VyKBuyyWBRmMPZ-tObt2-18" value="controller.py" style="rounded=0;whiteSpace=wrap;html=1;" parent="VyKBuyyWBRmMPZ-tObt2-19" vertex="1">
          <mxGeometry x="35" y="50" width="235" height="160" as="geometry" />
        </mxCell>
        <mxCell id="VyKBuyyWBRmMPZ-tObt2-25" value="&#xa;&#xa;&#xa;&#xa;&#xa;&#xa;&#xa;&#xa;&#xa;&#xa;&#xa;trading_engine.py" style="swimlane;startSize=0;" parent="VyKBuyyWBRmMPZ-tObt2-19" vertex="1">
          <mxGeometry x="345" y="50" width="145" height="160" as="geometry" />
        </mxCell>
        <mxCell id="VyKBuyyWBRmMPZ-tObt2-27" value="" style="endArrow=classic;startArrow=classic;html=1;rounded=0;exitX=1;exitY=0.5;exitDx=0;exitDy=0;entryX=0;entryY=0.5;entryDx=0;entryDy=0;" parent="VyKBuyyWBRmMPZ-tObt2-19" source="VyKBuyyWBRmMPZ-tObt2-18" target="VyKBuyyWBRmMPZ-tObt2-25" edge="1">
          <mxGeometry width="50" height="50" relative="1" as="geometry">
            <mxPoint x="-210" y="290" as="sourcePoint" />
            <mxPoint x="-160" y="240" as="targetPoint" />
          </mxGeometry>
        </mxCell>
        <mxCell id="VyKBuyyWBRmMPZ-tObt2-20" value="DataLoader" style="swimlane;whiteSpace=wrap;html=1;" parent="1" vertex="1">
          <mxGeometry x="140" y="310" width="390" height="240" as="geometry" />
        </mxCell>
        <mxCell id="VyKBuyyWBRmMPZ-tObt2-22" value="&#xa;&#xa;&#xa;&#xa;&#xa;&#xa;&#xa;&#xa;&#xa;&#xa;load_data.py" style="swimlane;startSize=0;" parent="VyKBuyyWBRmMPZ-tObt2-20" vertex="1">
          <mxGeometry x="40" y="60" width="130" height="140" as="geometry" />
        </mxCell>
        <mxCell id="yubQsmbWFmRafekZ4aJN-21" value="&#xa;&#xa;&#xa;&#xa;&#xa;&#xa;&#xa;&#xa;&#xa;data_access.py" style="swimlane;startSize=0;" parent="VyKBuyyWBRmMPZ-tObt2-20" vertex="1">
          <mxGeometry x="220" y="60" width="130" height="140" as="geometry" />
        </mxCell>
        <mxCell id="VyKBuyyWBRmMPZ-tObt2-24" value="" style="endArrow=classic;html=1;rounded=0;exitX=0.25;exitY=1;exitDx=0;exitDy=0;entryX=0;entryY=0.5;entryDx=0;entryDy=0;" parent="1" source="VyKBuyyWBRmMPZ-tObt2-22" target="yubQsmbWFmRafekZ4aJN-15" edge="1">
          <mxGeometry width="50" height="50" relative="1" as="geometry">
            <mxPoint x="400" y="610" as="sourcePoint" />
            <mxPoint x="213" y="610" as="targetPoint" />
            <Array as="points">
              <mxPoint x="213" y="730" />
            </Array>
          </mxGeometry>
        </mxCell>
        <mxCell id="VyKBuyyWBRmMPZ-tObt2-31" value="" style="endArrow=classic;startArrow=classic;html=1;rounded=0;exitX=0.25;exitY=0;exitDx=0;exitDy=0;entryX=0.5;entryY=1;entryDx=0;entryDy=0;entryPerimeter=0;" parent="1" source="VyKBuyyWBRmMPZ-tObt2-18" target="yubQsmbWFmRafekZ4aJN-26" edge="1">
          <mxGeometry width="50" height="50" relative="1" as="geometry">
            <mxPoint x="400" y="610" as="sourcePoint" />
            <mxPoint x="670" y="270" as="targetPoint" />
          </mxGeometry>
        </mxCell>
        <mxCell id="VyKBuyyWBRmMPZ-tObt2-32" value="PortfolioManager" style="swimlane;whiteSpace=wrap;html=1;" parent="1" vertex="1">
          <mxGeometry x="612.5" y="590" width="450" height="220" as="geometry" />
        </mxCell>
        <mxCell id="VyKBuyyWBRmMPZ-tObt2-34" value="&#xa;&#xa;&#xa;&#xa;&#xa;&#xa;&#xa;&#xa;&#xa;&#xa;quantitative_calculator.py" style="swimlane;startSize=0;" parent="VyKBuyyWBRmMPZ-tObt2-32" vertex="1">
          <mxGeometry x="260" y="50" width="170" height="150" as="geometry" />
        </mxCell>
        <mxCell id="VyKBuyyWBRmMPZ-tObt2-35" value="&#xa;&#xa;&#xa;&#xa;&#xa;&#xa;&#xa;&#xa;&#xa;&#xa;position_calculator.py" style="swimlane;startSize=0;" parent="VyKBuyyWBRmMPZ-tObt2-32" vertex="1">
          <mxGeometry x="40" y="50" width="150" height="150" as="geometry" />
        </mxCell>
        <mxCell id="VyKBuyyWBRmMPZ-tObt2-37" value="" style="endArrow=classic;html=1;rounded=0;exitX=1;exitY=0.5;exitDx=0;exitDy=0;entryX=0;entryY=0.5;entryDx=0;entryDy=0;" parent="VyKBuyyWBRmMPZ-tObt2-32" source="VyKBuyyWBRmMPZ-tObt2-35" target="VyKBuyyWBRmMPZ-tObt2-34" edge="1">
          <mxGeometry width="50" height="50" relative="1" as="geometry">
            <mxPoint x="-220" y="-20" as="sourcePoint" />
            <mxPoint x="-170" y="-70" as="targetPoint" />
          </mxGeometry>
        </mxCell>
        <mxCell id="VyKBuyyWBRmMPZ-tObt2-36" value="" style="endArrow=classic;startArrow=classic;html=1;rounded=0;exitX=0.5;exitY=0;exitDx=0;exitDy=0;entryX=0.5;entryY=1;entryDx=0;entryDy=0;" parent="1" source="VyKBuyyWBRmMPZ-tObt2-35" target="VyKBuyyWBRmMPZ-tObt2-18" edge="1">
          <mxGeometry width="50" height="50" relative="1" as="geometry">
            <mxPoint x="400" y="610" as="sourcePoint" />
            <mxPoint x="740" y="540" as="targetPoint" />
          </mxGeometry>
        </mxCell>
        <mxCell id="yubQsmbWFmRafekZ4aJN-2" value="Trader" style="ellipse;whiteSpace=wrap;html=1;aspect=fixed;" parent="1" vertex="1">
          <mxGeometry x="740" y="180" width="90" height="90" as="geometry" />
        </mxCell>
        <mxCell id="yubQsmbWFmRafekZ4aJN-4" value="" style="endArrow=classic;html=1;rounded=0;entryX=0.5;entryY=1;entryDx=0;entryDy=0;exitX=0.75;exitY=0;exitDx=0;exitDy=0;" parent="1" source="VyKBuyyWBRmMPZ-tObt2-18" target="yubQsmbWFmRafekZ4aJN-2" edge="1">
          <mxGeometry width="50" height="50" relative="1" as="geometry">
            <mxPoint x="700" y="530" as="sourcePoint" />
            <mxPoint x="750" y="480" as="targetPoint" />
          </mxGeometry>
        </mxCell>
        <mxCell id="yubQsmbWFmRafekZ4aJN-5" value="" style="endArrow=classic;html=1;rounded=0;exitX=1;exitY=0.6;exitDx=0;exitDy=0;exitPerimeter=0;entryX=0.5;entryY=0;entryDx=0;entryDy=0;" parent="1" source="yubQsmbWFmRafekZ4aJN-2" target="VyKBuyyWBRmMPZ-tObt2-25" edge="1">
          <mxGeometry width="50" height="50" relative="1" as="geometry">
            <mxPoint x="700" y="530" as="sourcePoint" />
            <mxPoint x="750" y="480" as="targetPoint" />
            <Array as="points">
              <mxPoint x="993" y="234" />
            </Array>
          </mxGeometry>
        </mxCell>
        <mxCell id="yubQsmbWFmRafekZ4aJN-15" value="prices.csv" style="rhombus;whiteSpace=wrap;html=1;" parent="1" vertex="1">
          <mxGeometry x="285" y="678.75" width="100" height="102.5" as="geometry" />
        </mxCell>
        <mxCell id="yubQsmbWFmRafekZ4aJN-17" value="" style="endArrow=classic;html=1;rounded=0;exitX=0.5;exitY=1;exitDx=0;exitDy=0;entryX=0;entryY=0.5;entryDx=0;entryDy=0;" parent="1" source="VyKBuyyWBRmMPZ-tObt2-22" target="yubQsmbWFmRafekZ4aJN-19" edge="1">
          <mxGeometry width="50" height="50" relative="1" as="geometry">
            <mxPoint x="700" y="530" as="sourcePoint" />
            <mxPoint x="267.5" y="610" as="targetPoint" />
            <Array as="points">
              <mxPoint x="245" y="610" />
            </Array>
          </mxGeometry>
        </mxCell>
        <mxCell id="yubQsmbWFmRafekZ4aJN-19" value="rfr.csv" style="rhombus;whiteSpace=wrap;html=1;" parent="1" vertex="1">
          <mxGeometry x="285" y="560" width="100" height="100" as="geometry" />
        </mxCell>
        <mxCell id="yubQsmbWFmRafekZ4aJN-22" value="" style="endArrow=classic;html=1;rounded=0;exitX=1;exitY=0.5;exitDx=0;exitDy=0;entryX=0.5;entryY=1;entryDx=0;entryDy=0;" parent="1" source="yubQsmbWFmRafekZ4aJN-19" target="yubQsmbWFmRafekZ4aJN-21" edge="1">
          <mxGeometry width="50" height="50" relative="1" as="geometry">
            <mxPoint x="700" y="530" as="sourcePoint" />
            <mxPoint x="750" y="480" as="targetPoint" />
            <Array as="points">
              <mxPoint x="425" y="610" />
            </Array>
          </mxGeometry>
        </mxCell>
        <mxCell id="yubQsmbWFmRafekZ4aJN-23" value="" style="endArrow=classic;html=1;rounded=0;exitX=1;exitY=0.5;exitDx=0;exitDy=0;entryX=0.75;entryY=1;entryDx=0;entryDy=0;" parent="1" source="yubQsmbWFmRafekZ4aJN-15" target="yubQsmbWFmRafekZ4aJN-21" edge="1">
          <mxGeometry width="50" height="50" relative="1" as="geometry">
            <mxPoint x="700" y="530" as="sourcePoint" />
            <mxPoint x="750" y="480" as="targetPoint" />
            <Array as="points">
              <mxPoint x="458" y="730" />
            </Array>
          </mxGeometry>
        </mxCell>
        <mxCell id="yubQsmbWFmRafekZ4aJN-25" value="" style="endArrow=classic;html=1;rounded=0;exitX=1;exitY=0.5;exitDx=0;exitDy=0;entryX=0;entryY=0.5;entryDx=0;entryDy=0;" parent="1" source="yubQsmbWFmRafekZ4aJN-21" target="VyKBuyyWBRmMPZ-tObt2-18" edge="1">
          <mxGeometry width="50" height="50" relative="1" as="geometry">
            <mxPoint x="700" y="530" as="sourcePoint" />
            <mxPoint x="750" y="480" as="targetPoint" />
          </mxGeometry>
        </mxCell>
        <mxCell id="yubQsmbWFmRafekZ4aJN-26" value="trades.csv" style="rhombus;whiteSpace=wrap;html=1;" parent="1" vertex="1">
          <mxGeometry x="620" y="170" width="100" height="100" as="geometry" />
        </mxCell>
      </root>
    </mxGraphModel>
  </diagram>
</mxfile>
